<svg xmlns="http://www.w3.org/2000/svg" viewBox="0 0 240 170" role="img"><rect width="240" height="170" rx="18" fill="#F6F4F0"/><ellipse cx="120" cy="143" rx="76" ry="14" fill="#DCD8D0" opacity=".55"/><polygon points="103.3,119.3 106.1,120.6 106.1,96.6 103.3,95.3" fill="#654832" stroke="#51463D" stroke-opacity=".13" stroke-width="1"/><polygon points="108.9,119.3 106.1,120.6 106.1,96.6 108.9,95.3" fill="#654832" stroke="#51463D" stroke-opacity=".13" stroke-width="1"/><polygon points="106.1,94.0 108.9,95.3 106.1,96.6 103.3,95.3" fill="#654832" stroke="#51463D" stroke-opacity=".13" stroke-width="1"/><polygon points="79.2,130.5 82.0,131.8 82.0,107.8 79.2,106.5" fill="#654832" stroke="#51463D" stroke-opacity=".13" stroke-width="1"/><polygon points="84.8,130.5 82.0,131.8 82.0,107.8 84.8,106.5" fill="#654832" stroke="#51463D" stroke-opacity=".13" stroke-width="1"/><polygon points="82.0,105.2 84.8,106.5 82.0,107.8 79.2,106.5" fill="#654832" stroke="#51463D" stroke-opacity=".13" stroke-width="1"/><polygon points="73.1,106.5 133.9,134.9 133.9,129.8 73.1,101.4" fill="#B78A62" stroke="#51463D" stroke-opacity=".13" stroke-width="1"/><polygon points="166.9,119.5 133.9,134.9 133.9,129.8 166.9,114.4" fill="#B78A62" stroke="#51463D" stroke-opacity=".13" stroke-width="1"/><polygon points="106.1,86.1 166.9,114.4 133.9,129.8 73.1,101.4" fill="#B78A62" stroke="#51463D" stroke-opacity=".13" stroke-width="1"/><polygon points="79.5,121.3 133.7,146.6 133.7,143.6 79.5,118.3" fill="#A57950" stroke="#51463D" stroke-opacity=".13" stroke-width="1"/><polygon points="160.5,134.1 133.7,146.6 133.7,143.6 160.5,131.1" fill="#A57950" stroke="#51463D" stroke-opacity=".13" stroke-width="1"/><polygon points="106.3,105.8 160.5,131.1 133.7,143.6 79.5,118.3" fill="#A57950" stroke="#51463D" stroke-opacity=".13" stroke-width="1"/><polygon points="155.2,143.5 158.0,144.8 158.0,120.8 155.2,119.5" fill="#654832" stroke="#51463D" stroke-opacity=".13" stroke-width="1"/><polygon points="160.8,143.5 158.0,144.8 158.0,120.8 160.8,119.5" fill="#654832" stroke="#51463D" stroke-opacity=".13" stroke-width="1"/><polygon points="158.0,118.2 160.8,119.5 158.0,120.8 155.2,119.5" fill="#654832" stroke="#51463D" stroke-opacity=".13" stroke-width="1"/><polygon points="131.1,154.7 133.9,156.0 133.9,132.1 131.1,130.8" fill="#654832" stroke="#51463D" stroke-opacity=".13" stroke-width="1"/><polygon points="136.7,154.7 133.9,156.0 133.9,132.1 136.7,130.8" fill="#654832" stroke="#51463D" stroke-opacity=".13" stroke-width="1"/><polygon points="133.9,129.4 136.7,130.8 133.9,132.1 131.1,130.8" fill="#654832" stroke="#51463D" stroke-opacity=".13" stroke-width="1"/></svg>