<svg xmlns="http://www.w3.org/2000/svg" viewBox="0 0 240 170" role="img"><rect width="240" height="170" rx="18" fill="#F6F4F0"/><ellipse cx="120" cy="143" rx="76" ry="14" fill="#DCD8D0" opacity=".55"/><polygon points="90.0,137.0 120.0,151.0 120.0,144.8 90.0,130.8" fill="#654832" stroke="#51463D" stroke-opacity=".13" stroke-width="1"/><polygon points="150.0,137.0 120.0,151.0 120.0,144.8 150.0,130.8" fill="#654832" stroke="#51463D" stroke-opacity=".13" stroke-width="1"/><polygon points="120.0,116.8 150.0,130.8 120.0,144.8 90.0,130.8" fill="#654832" stroke="#51463D" stroke-opacity=".13" stroke-width="1"/><polygon points="113.0,132.6 120.0,135.9 120.0,79.7 113.0,76.4" fill="#654832" stroke="#51463D" stroke-opacity=".13" stroke-width="1"/><polygon points="127.0,132.6 120.0,135.9 120.0,79.7 127.0,76.4" fill="#654832" stroke="#51463D" stroke-opacity=".13" stroke-width="1"/><polygon points="120.0,73.1 127.0,76.4 120.0,79.7 113.0,76.4" fill="#654832" stroke="#51463D" stroke-opacity=".13" stroke-width="1"/><polygon points="73.1,79.5 120.0,101.4 120.0,93.9 73.1,72.0" fill="#A57950" stroke="#51463D" stroke-opacity=".13" stroke-width="1"/><polygon points="166.9,79.5 120.0,101.4 120.0,93.9 166.9,72.0" fill="#A57950" stroke="#51463D" stroke-opacity=".13" stroke-width="1"/><polygon points="120.0,50.1 166.9,72.0 120.0,93.9 73.1,72.0" fill="#A57950" stroke="#51463D" stroke-opacity=".13" stroke-width="1"/></svg>