<svg xmlns="http://www.w3.org/2000/svg" viewBox="0 0 240 170" role="img"><rect width="240" height="170" rx="18" fill="#F6F4F0"/><ellipse cx="120" cy="143" rx="76" ry="14" fill="#DCD8D0" opacity=".55"/><polygon points="90.5,118.3 93.1,119.5 93.1,112.0 90.5,110.8" fill="#654832" stroke="#51463D" stroke-opacity=".13" stroke-width="1"/><polygon points="95.6,118.3 93.1,119.5 93.1,112.0 95.6,110.8" fill="#654832" stroke="#51463D" stroke-opacity=".13" stroke-width="1"/><polygon points="93.1,109.6 95.6,110.8 93.1,112.0 90.5,110.8" fill="#654832" stroke="#51463D" stroke-opacity=".13" stroke-width="1"/><polygon points="77.3,124.4 79.9,125.6 79.9,118.2 77.3,117.0" fill="#654832" stroke="#51463D" stroke-opacity=".13" stroke-width="1"/><polygon points="82.4,124.4 79.9,125.6 79.9,118.2 82.4,117.0" fill="#654832" stroke="#51463D" stroke-opacity=".13" stroke-width="1"/><polygon points="79.9,115.8 82.4,117.0 79.9,118.2 77.3,117.0" fill="#654832" stroke="#51463D" stroke-opacity=".13" stroke-width="1"/><polygon points="73.1,112.9 109.3,129.8 109.3,111.2 73.1,94.4" fill="#BD956D" stroke="#51463D" stroke-opacity=".13" stroke-width="1"/><polygon points="109.8,129.6 109.3,129.8 109.3,111.2 109.8,111.0" fill="#BD956D" stroke="#51463D" stroke-opacity=".13" stroke-width="1"/><polygon points="73.6,94.1 109.8,111.0 109.3,111.2 73.1,94.4" fill="#BD956D" stroke="#51463D" stroke-opacity=".13" stroke-width="1"/><polygon points="73.1,114.9 147.4,149.6 147.4,126.1 73.1,91.4" fill="#A57950" stroke="#51463D" stroke-opacity=".13" stroke-width="1"/><polygon points="166.9,140.5 147.4,149.6 147.4,126.1 166.9,117.0" fill="#A57950" stroke="#51463D" stroke-opacity=".13" stroke-width="1"/><polygon points="92.6,82.3 166.9,117.0 147.4,126.1 73.1,91.4" fill="#A57950" stroke="#51463D" stroke-opacity=".13" stroke-width="1"/><polygon points="73.1,91.0 147.4,125.6 147.4,122.8 73.1,88.2" fill="#654832" stroke="#51463D" stroke-opacity=".13" stroke-width="1"/><polygon points="166.9,116.5 147.4,125.6 147.4,122.8 166.9,113.7" fill="#654832" stroke="#51463D" stroke-opacity=".13" stroke-width="1"/><polygon points="92.6,79.1 166.9,113.7 147.4,122.8 73.1,88.2" fill="#654832" stroke="#51463D" stroke-opacity=".13" stroke-width="1"/><polygon points="157.6,149.6 160.1,150.8 160.1,143.3 157.6,142.1" fill="#654832" stroke="#51463D" stroke-opacity=".13" stroke-width="1"/><polygon points="162.7,149.6 160.1,150.8 160.1,143.3 162.7,142.1" fill="#654832" stroke="#51463D" stroke-opacity=".13" stroke-width="1"/><polygon points="160.1,140.9 162.7,142.1 160.1,143.3 157.6,142.1" fill="#654832" stroke="#51463D" stroke-opacity=".13" stroke-width="1"/><polygon points="110.2,130.2 146.4,147.1 146.4,128.6 110.2,111.7" fill="#BD956D" stroke="#51463D" stroke-opacity=".13" stroke-width="1"/><polygon points="147.0,146.9 146.4,147.1 146.4,128.6 147.0,128.3" fill="#BD956D" stroke="#51463D" stroke-opacity=".13" stroke-width="1"/><polygon points="110.8,111.4 147.0,128.3 146.4,128.6 110.2,111.7" fill="#BD956D" stroke="#51463D" stroke-opacity=".13" stroke-width="1"/><polygon points="144.4,155.7 146.9,156.9 146.9,149.5 144.4,148.3" fill="#654832" stroke="#51463D" stroke-opacity=".13" stroke-width="1"/><polygon points="149.5,155.7 146.9,156.9 146.9,149.5 149.5,148.3" fill="#654832" stroke="#51463D" stroke-opacity=".13" stroke-width="1"/><polygon points="146.9,147.1 149.5,148.3 146.9,149.5 144.4,148.3" fill="#654832" stroke="#51463D" stroke-opacity=".13" stroke-width="1"/></svg>